<?xml version="1.0" encoding="UTF-8" standalone="no"?>
<svg
   version="1.0"
   width="1333.9855pt"
   height="983.6084pt"
   viewBox="0 0 1333.9855 983.60841"
   preserveAspectRatio="xMidYMid"
   id="svg707"
   sodipodi:docname="CNAImage.svg"
   inkscape:version="1.3 (0e150ed6c4, 2023-07-21)"
   xmlns:inkscape="http://www.inkscape.org/namespaces/inkscape"
   xmlns:sodipodi="http://sodipodi.sourceforge.net/DTD/sodipodi-0.dtd"
   xmlns="http://www.w3.org/2000/svg"
   xmlns:svg="http://www.w3.org/2000/svg">
  <defs
     id="defs707">
    <rect
       x="713.15796"
       y="-63.257942"
       width="231.1927"
       height="61.751801"
       id="rect11" />
    <rect
       x="748.55231"
       y="1027.1885"
       width="100.91148"
       height="48.196526"
       id="rect9" />
    <rect
       x="1388.6624"
       y="1045.2622"
       width="156.6387"
       height="87.356209"
       id="rect8" />
    <clipPath
       clipPathUnits="userSpaceOnUse"
       id="clipPath9">
      <path
         id="path10"
         style="fill:#ff0000;fill-opacity:1;fill-rule:nonzero;stroke:none;stroke-width:7.5"
         d="M 6130.0003,2367.5242 V 372.84635 H 9679.1406 V 2207.3875 c -25.5142,15.9547 -47.6925,30.0556 -144.7117,91.6992 -35.0183,22.7401 -70.0035,45.5586 -104.9415,68.4375 z m 3402.8761,0 c 10.7805,-7.0121 21.5295,-14.076 32.3145,-21.0791 75.975,-48.2705 94.842,-60.3556 113.9497,-72.4219 v 93.501 z M 9074.1606,2083.447 c 9.3218,-0.4057 20.3415,-5.3672 31.2743,-16.6699 49.0515,-50.7088 97.6492,-101.7988 147.7882,-151.4502 59.8028,-58.8998 124.0927,-112.9481 187.6313,-167.7099 42.354,-36.5022 5.4832,-79.2904 -36.87,-42.7879 -64.527,55.6132 -129.8033,110.5415 -190.5173,170.3757 -50.1952,49.7237 -98.8905,100.8416 -147.9787,151.6407 -27.9255,28.8991 -15.153,57.6379 8.6722,56.6015 z" />
    </clipPath>
    <clipPath
       clipPathUnits="userSpaceOnUse"
       id="clipPath12">
      <path
         id="path12"
         style="fill:#ff0000;fill-opacity:1;fill-rule:nonzero;stroke:none;stroke-width:0.75"
         d="m 1147.4576,724.08398 c 2.371,2.44356 4.7542,4.87451 7.1748,7.27149 4.6609,4.59056 9.5951,8.88528 14.5532,13.1499 v -20.42139 z m -0.8643,7.19971 v 14.82715 h 15.8217 c -4.0092,-3.48285 -7.9749,-7.01459 -11.7582,-10.74317 -1.3647,-1.35178 -2.7173,-2.71503 -4.0635,-4.08398 z" />
    </clipPath>
  </defs>
  <sodipodi:namedview
     id="namedview707"
     pagecolor="#505050"
     bordercolor="#eeeeee"
     borderopacity="1"
     inkscape:showpageshadow="0"
     inkscape:pageopacity="0"
     inkscape:pagecheckerboard="0"
     inkscape:deskcolor="#505050"
     inkscape:document-units="pt"
     inkscape:zoom="0.46948232"
     inkscape:cx="801.94713"
     inkscape:cy="544.21645"
     inkscape:window-width="1560"
     inkscape:window-height="1009"
     inkscape:window-x="1912"
     inkscape:window-y="-8"
     inkscape:window-maximized="1"
     inkscape:current-layer="layer1" />
  <g
     inkscape:groupmode="layer"
     id="layer2"
     inkscape:label="image layer"
     transform="translate(-208.06557,95.428337)">
    <g
       transform="matrix(0.1,0,0,-0.1,229.31004,922.88816)"
       fill="#000000"
       stroke="none"
       id="g707">
      <g
         id="g752">
        <path
           d="m 5730,8837 c -14,-7 -36,-29 -49,-50 -17,-26 -33,-38 -55,-41 -17,-3 -103,-16 -191,-30 -144,-24 -160,-25 -168,-10 -14,25 -74,46 -113,38 -37,-7 -84,-53 -84,-84 0,-14 -18,-23 -81,-40 -93,-25 -195,-58 -289,-93 -64,-24 -65,-24 -95,-6 -58,31.764 -117.5,9.764 -149.5,-31.052 -32,-40.816 -36.5,-100.448 15.5,-143.948 68,-58 179,-16 179,67 0,35 1,36 83,67 107,41 302,100 330,100 12,0 28,-9 34,-20 7,-10 30,-24 51,-31 57,-17 108,9 134,67 16,37 24,44 56,49 20,4 57,10 82,15 25,6 84,14 132,20 48,6 94,13 101,16 8,3 22,-7 31,-21 22,-34 77,-57 114,-49 32,8 71,41 82,70 8,19 19,22 119,28 61,4 116,4 121,1 6,-4 10,-69 10,-161 v -154 h 25 25 l -2,183 -3,182 -147,-1 c -141,-1 -146,0 -156,21 -11,23 -68,55 -99,55 -10,0 -29,-6 -43,-13 z"
           id="path1"
           sodipodi:nodetypes="scccccscccscscscccccsccccccscccccccss"
           style="fill:#ffdd55" />
        <path
           d="m 8265,8218 c -15,-12 -34,-36 -41,-54 -12,-29 -12,-39 1,-72 26,-65 96,-90 155,-56 27,16 28,16 86,-26 80,-58 168,-124 174,-130 3,-3 22,-18 43,-33 30,-23 37,-34 37,-62 0,-76 45,-119 124,-117 l 51,1 162,-163 c 161,-160 163,-163 163,-206 0,-62 36,-107 94,-115 31,-5 50,-15 64,-33 11,-15 47,-63 81,-107 33,-44 64,-85 69,-91 5,-6 22,-30 37,-55 16,-24 32,-47 38,-50 5,-4 5,-14 -2,-27 -33,-63 5,-134 84,-156 44,-13 53,-26 166,-245 60,-116 61,-126 25,-153 -5,-3 -9,-28 -9,-54 0,-43 4,-51 38,-81 23,-20 49,-33 65,-33 25,0 29,-8 63,-97 20,-54 46,-128 58,-165 l 23,-67 -26,-24 c -34,-32 -43,-76 -24,-120 14,-34 58,-67 88,-67 16,0 31,-50 53,-170 9,-47 21,-111 27,-143 10,-55 10,-58 -13,-80 -14,-12 -30,-36 -37,-53 -18,-43 4,-97 53,-125 32,-19 35,-25 35,-67 0,-26 3,-104 7,-174 l 6,-128 h -156 -157 v -25 -25 l 178,2 177,3 -3,198 -3,197 35,34 c 31,29 36,40 36,79 0,37 -5,51 -31,76 -17,17 -39,31 -49,31 -15,0 -21,16 -35,98 -16,96 -22,127 -46,229 -12,50 -11,54 10,76 52,56 32,147 -39,175 -38,14 -41,19 -69,106 -16,50 -43,127 -60,170 -28,72 -29,81 -15,97 21,23 29,83 15,117 -14,32 -58,62 -93,62 -20,0 -30,13 -63,82 -22,45 -63,123 -92,174 -29,51 -53,98 -53,106 0,7 9,24 20,38 11,14 20,36 20,50 0,65 -81,130 -137,109 -14,-5 -29,-6 -32,-2 -3,5 -25,36 -48,68 -23,33 -65,89 -93,125 -28,36 -62,81 -76,101 l -25,36 22,37 c 19,33 20,42 10,76 -20,68 -85,97 -154,71 -23,-9 -38,3 -191,155 -149,149 -165,168 -155,186 14,27 5,85 -18,110 -10,11 -33,26 -52,34 -31,13 -38,13 -74,-5 l -39,-19 -25,21 c -14,12 -31,27 -37,32 -6,6 -66,51 -133,100 l -123,89 v 42 c 0,35 -5,47 -35,73 -43,38 -90,41 -130,9 z"
           id="path78"
           style="fill:#0000ff" />
        <path
           d="m 6067,7915 c -42,-53 -77,-102 -77,-109 0,-8 8,-17 18,-21 12,-5 29,7 62,45 25,28 48,50 53,50 4,0 7,-26 7,-57 v -603 l -6,-511 -4,-529 v -355 -274 -129 c 0,-141 0,-142 -60,-142 -47,0 -180,-46 -250,-87 -36,-21 -100,-72 -142,-114 -97,-97 -160,-219 -186,-358 l -17,-91 h -210 -485 -635 -1184 -66 l 54,48 c 39,35 53,53 48,65 -3,9 -14,17 -24,17 -15,0 -91,-56 -190,-140 -23,-19 -14,-34 50,-84 34,-28 79,-63 99,-79 31,-25 40,-28 53,-17 25,21 18,36 -35,77 -27,21 -49,41 -50,46 0,4 27.001,7.2656 61,7 394.0076,-3.608 787.9716,0 1182,0 h 639 c 246.9047,-1.3014 245.6731,0 481,0 h 212 l 18,-92 c 40,-203 154,-366 324,-466 64,-38 173,-77 238,-86 79,-11 85,-14 85,-46 v -314 -351 -368 -905 -627 l -28,35 c -46,60 -70,80 -86,74 -28,-11 -17,-38 45,-114 33,-41 65,-83 71,-93 17,-32 45,-14 117,77 72,89 84,119 55,130 -15,6 -33,-10 -93,-84 l -20,-25 -1,630 v 630 c 3.6252,159.1327 -1.8819,171.5657 0,275 2.9191,160.4424 -1.7382,217.0903 0,359 2.8788,175.5808 -4.334,192.0647 0,361 4.9365,192.4181 2.4085,215.953 2,309 l 3,35 70,12 c 282,48 492,249 561,537 8,31 13,61 13,65 -7,43 -11,42 221,42 h 489 631 600 280 319 76 l -59,-53 c -56,-50 -67,-77 -31,-77 22,0 195,149 189,163 -10,21 -177,147 -196,147 -32,0 -20,-24 39,-77 l 58,-52 -77,-1 h -313 -286 -600 -631 -489 -219 v 33 c -1,47 -32,167 -61,232 -23,52 -78,134 -122,182 -109,119 -256,192 -439,218 l -38,6 v 134 409 349 532 l 1,1180 20,-25 c 76,-92 101,-107 107,-64 3,22 -136,204 -156,204 -4,0 -42,-43 -85,-95 z"
           id="path79"
           style="fill:#1a1a1a"
           sodipodi:nodetypes="csccsscccccsscsccsccccccsccccccsccsccccssscccccccccccccssscccccssccssccscscccsccccccccccsssccccsc" />
        <path
           d="m 2497,4730 c -51,-28 -77,-73 -77,-134 0,-80 48,-136 130,-151 43,-7 113,26 144,68 29,39 29,125 0,163 -52,70 -129,91 -197,54 z"
           id="path316"
           style="fill:#008000" />
        <path
           id="path318"
           style="fill:#008000"
           d="m 2000.0051,4630.0046 -6.0059,-27.0117 c -4,-14 -4,-105.9947 0,-203.9941 6,-167.9988 5.0068,-178.9981 -12.9932,-187.9981 -28.9994,-15.9994 -54.0068,-78.0054 -47.0068,-115.0048 6,-34 38.0035,-70.0006 78.0029,-90 14,-7 25.0039,-23.9967 29.0039,-45.9961 3,-19 17.0006,-90.9942 30,-158.9942 21,-109.9994 21.9981,-124 7.9981,-135 -40,-28.9994 -51.9975,-113.0103 -22.9981,-155.0097 9,-12 34.001,-29.9903 56.001,-39.9903 3.0854,-1.3113 5.5433,-2.4444 8.1885,-3.6181 1.4995,-0.409 2.9866,-0.842 4.4678,-1.3184 1.6422,-0.5 3.0752,-1.407 4.5849,-2.168 1.9118,0.197 3.8239,0.3904 5.7422,0.5274 6.2626,0.619 12.5142,0.837 18.8086,0.747 5.2281,0.071 10.4542,0.1544 15.6738,0.4834 4.1633,0.3052 8.3488,0.6604 12.3926,1.7579 4.7179,1.3687 9.4282,2.7804 14.1211,4.2187 4.8737,1.8782 9.8683,3.3972 14.3994,6.0498 2.329,1.3635 4.5137,2.3477 6.5625,3.0176 l 17.0508,22.2949 c 28,37 34,88.0049 15,130.0049 -11,25 -57.0064,56.9971 -81.0058,56.9971 -15,0 -24.9889,38.0012 -62.9883,240 -14,73.9994 -14.0059,74.9951 8.9941,94.9951 67.9994,57.9994 55.9936,162.0039 -21.0058,194.0039 -29,12 -29.9874,14.9996 -36.9874,93.999 -3,45 -6.0058,120.9957 -6.0058,169.9951 v 87.0117 h 154.9951 155.0098 v 30 30 h -180 z m 164.5898,-1212.4218 c -0.885,-0.2697 -1.7612,-0.5753 -2.6514,-0.8203 0.1082,-0.2882 0.3162,-1.0269 0.4249,-1.3184 0.053,0.017 0.1082,0.027 0.1611,0.044 0.6975,0.6937 1.3907,1.3842 2.0654,2.0948 z m 352.1338,-670.8252 c 0.084,-1.2064 0.1801,-2.4117 0.2637,-3.6182 0.1048,1.1939 0.2404,2.1895 0.3369,3.4131 -0.2138,0.056 -0.389,0.1477 -0.6006,0.2051 z m -81.0791,-195.0586 c 0,-2.5245 -0.01,-5.0489 -0.029,-7.5733 0.1758,-0.1418 0.3359,-0.2986 0.5127,-0.4394 -0.1576,2.671 -0.3077,5.3424 -0.4834,8.0127 z m 54.4629,-27.3047 c 0.048,-1.0892 0.1101,-2.1776 0.1611,-3.2666 0.1656,-0.022 0.3175,-0.067 0.4834,-0.088 -0.2057,1.1195 -0.4222,2.2371 -0.6445,3.3545 z m 148.374,-94.7754 c -0.3097,0.038 -2.8311,-0.07 -3.6181,-0.073 0.1346,-0.3384 0.2313,-0.7147 0.3808,-1.0401 0.1,-0.044 0.1996,-0.089 0.293,-0.1465 2.5031,0.7463 3.966,1.1355 2.9443,1.2598 z m 93.0029,-182.2266 c -5.9172,-1.5467 -11.8185,-3.1594 -17.7246,-4.7461 4.8532,0.8634 9.6953,1.7743 14.5459,2.6514 0.2013,0.159 0.4769,0.3029 0.6446,0.4688 0.8386,0.5511 1.6936,1.0776 2.5341,1.6259 z m 182.8418,-105.4687 -0.6884,-1.2598 c 0.228,0.4175 1.0274,0.9258 0.6884,1.2598 z m -11.0449,-21.8115 c -0.092,-0.059 -0.1873,-0.1167 -0.2783,-0.1758 0.036,-0.01 0.067,-0.034 0.1025,-0.044 0.057,0.075 0.1189,0.1452 0.1758,0.2198 z" />
        <path
           id="path548"
           clip-path="url(#clipPath9)"
           style="fill:#ff0000;fill-opacity:1"
           d="m 9641.758,2316.7087 c -1.9253,-6.5699 -4.1513,-13.0004 -6.5625,-19.3505 1.588,2.4881 3.3837,5.1832 4.9365,7.6318 0.3927,2.3361 0.816,4.6888 1.0401,6.9727 0.157,1.5861 0.4049,3.1634 0.5859,4.746 z M 6130.0002,797.0066 V 612.99293 c 0,-160.99856 1.9961,-183.99024 15.9961,-189.99024 9,-2.99991 103.0087,-1.00479 208.0078,4.99512 l 189.9902,11.00098 26.001,-30 c 18,-21.99982 36.0098,-31.99512 65.0098,-34.99512 43.8755,-5.26508 74.6509,7.19792 102.4804,42.75879 0.2025,0.56164 0.4438,1.10742 0.6446,1.66992 2.2803,9.47438 4.2948,18.90758 6.0205,28.50586 2.0986,8.46988 4.1921,16.84069 4.7461,25.60547 1.2014,10.85258 -0.2875,21.90547 -0.1465,32.79785 -0.3745,8.90188 -0.7752,17.84718 -2.3731,26.63086 -1.3727,6.47288 -3.465,12.35234 -7.6904,17.60742 -0.814,1.2977 -1.4863,2.65273 -2.2558,3.96973 -0.6831,0.2546 -1.1757,0.40253 -1.8897,0.67383 -4.3608,1.65721 -7.0653,6.40716 -8.7158,12.20215 -51.1962,48.24235 -140.672,34.71521 -171.8262,-30.42481 -20,-40.99964 -27.0028,-43.00204 -221.001,-52.00195 l -142.998,-7.00196 V 632.0066 787.99781 l -30,3.99902 z" />
      </g>
    </g>
  </g>
  <g
     inkscape:groupmode="layer"
     id="layer3"
     inkscape:label="text"
     style="fill:#000000"
     transform="translate(-208.06557,95.428337)">
    <text
       xml:space="preserve"
       style="font-size:24px;font-family:Sans;-inkscape-font-specification:'Sans, Normal';fill:#1a1a1a;stroke-width:0.75"
       x="858.65851"
       y="377.80978"
       id="text27"><tspan
         sodipodi:role="line"
         id="tspan27"
         style="fill:#1a1a1a;stroke-width:0.75"
         x="858.65851"
         y="377.80978">English</tspan></text>
    <text
       xml:space="preserve"
       style="font-size:24px;font-family:Sans;-inkscape-font-specification:'Sans, Normal';fill:#1a1a1a;stroke-width:0.75"
       x="478.8103"
       y="-929.76831"
       id="text27-4"
       transform="rotate(90)"><tspan
         sodipodi:role="line"
         id="tspan27-3"
         style="fill:#1a1a1a;stroke-width:0.75"
         x="478.8103"
         y="-929.76831">English</tspan></text>
    <text
       xml:space="preserve"
       style="font-size:24px;font-family:Sans;-inkscape-font-specification:'Sans, Normal';fill:#1a1a1a;stroke-width:0.75"
       x="-448.64642"
       y="758.3786"
       id="text27-4-3"
       transform="rotate(-90)"><tspan
         sodipodi:role="line"
         id="tspan27-3-4"
         style="fill:#1a1a1a;stroke-width:0.75"
         x="-448.64642"
         y="758.3786">English</tspan></text>
    <text
       xml:space="preserve"
       style="font-size:24px;font-family:Sans;-inkscape-font-specification:'Sans, Normal';fill:#1a1a1a;stroke-width:0.75"
       x="858.65857"
       y="340.2684"
       id="text28"><tspan
         sodipodi:role="line"
         style="stroke-width:0.75"
         x="858.65857"
         y="340.2684"
         id="tspan29">Science</tspan></text>
    <text
       xml:space="preserve"
       style="font-size:24px;font-family:Sans;-inkscape-font-specification:'Sans, Normal';fill:#1a1a1a;stroke-width:0.75"
       x="478.91415"
       y="-967.00592"
       id="text28-0"
       transform="rotate(90)"><tspan
         sodipodi:role="line"
         style="stroke-width:0.75"
         x="478.91415"
         y="-967.00592"
         id="tspan29-1">Science</tspan></text>
    <text
       xml:space="preserve"
       style="font-size:24px;font-family:Sans;-inkscape-font-specification:'Sans, Normal';fill:#1a1a1a;stroke-width:0.75"
       x="-448.68237"
       y="715.26825"
       id="text28-9"
       transform="rotate(-90)"><tspan
         sodipodi:role="line"
         style="stroke-width:0.75"
         x="-448.68237"
         y="715.26825"
         id="tspan29-5">Science</tspan></text>
    <text
       xml:space="preserve"
       style="font-size:24px;font-family:Sans;-inkscape-font-specification:'Sans, Normal';fill:#1a1a1a;stroke-width:0.75"
       x="858.65851"
       y="300.33081"
       id="text30"><tspan
         sodipodi:role="line"
         id="tspan30"
         style="stroke-width:0.75"
         x="858.65851"
         y="300.33081">Math</tspan></text>
    <text
       xml:space="preserve"
       style="font-size:24px;font-family:Sans;-inkscape-font-specification:'Sans, Normal';fill:#1a1a1a;stroke-width:0.75"
       x="479.85114"
       y="-1007.0847"
       id="text30-8"
       transform="rotate(90)"><tspan
         sodipodi:role="line"
         id="tspan30-1"
         style="stroke-width:0.75"
         x="479.85114"
         y="-1007.0847">Math</tspan></text>
    <text
       xml:space="preserve"
       style="font-size:24px;font-family:Sans;-inkscape-font-specification:'Sans, Normal';fill:#1a1a1a;stroke-width:0.75"
       x="-449.02625"
       y="671.21301"
       id="text30-6"
       transform="rotate(-90)"><tspan
         sodipodi:role="line"
         id="tspan30-4"
         style="stroke-width:0.75"
         x="-449.02625"
         y="671.21301">Math</tspan></text>
    <text
       xml:space="preserve"
       style="font-size:24px;font-family:Sans;-inkscape-font-specification:'Sans, Normal';fill:#1a1a1a;stroke-width:0.75"
       x="857.8598"
       y="225.24811"
       id="text31"><tspan
         sodipodi:role="line"
         id="tspan31"
         style="stroke-width:0.75"
         x="857.8598"
         y="225.24811">Casper</tspan></text>
    <text
       xml:space="preserve"
       style="font-size:24px;font-family:Sans;-inkscape-font-specification:'Sans, Normal';fill:#1a1a1a;stroke-width:0.75"
       x="477.76291"
       y="-1084.1322"
       id="text31-5"
       transform="rotate(90)"><tspan
         sodipodi:role="line"
         id="tspan31-2"
         style="stroke-width:0.75"
         x="477.76291"
         y="-1084.1322">Casper</tspan></text>
    <text
       xml:space="preserve"
       style="font-size:24px;font-family:Sans;-inkscape-font-specification:'Sans, Normal';fill:#1a1a1a;stroke-width:0.75"
       x="-448.06412"
       y="596.81439"
       id="text31-4"
       transform="rotate(-90)"><tspan
         sodipodi:role="line"
         id="tspan31-7"
         style="stroke-width:0.75"
         x="-448.06412"
         y="596.81439">Casper</tspan></text>
    <text
       xml:space="preserve"
       style="font-size:24px;font-family:Sans;-inkscape-font-specification:'Sans, Normal';fill:#1a1a1a;stroke-width:0.75"
       x="859.45728"
       y="178.92049"
       id="text32"><tspan
         sodipodi:role="line"
         id="tspan32"
         style="stroke-width:0.75"
         x="859.45728"
         y="178.92049">Extras</tspan></text>
    <text
       xml:space="preserve"
       style="font-size:24px;font-family:Sans;-inkscape-font-specification:'Sans, Normal';fill:#1a1a1a;stroke-width:0.75"
       x="861.47607"
       y="762.8042"
       id="text32-2"><tspan
         sodipodi:role="line"
         id="tspan32-1"
         style="stroke-width:0.75"
         x="861.47607"
         y="762.8042">Extras</tspan></text>
    <text
       xml:space="preserve"
       style="font-size:24px;font-family:Sans;-inkscape-font-specification:'Sans, Normal';fill:#1a1a1a;stroke-width:0.75"
       x="478.45279"
       y="-1129.4655"
       id="text32-6"
       transform="rotate(90)"><tspan
         sodipodi:role="line"
         id="tspan32-9"
         style="stroke-width:0.75"
         x="478.45279"
         y="-1129.4655">Extras</tspan></text>
    <text
       xml:space="preserve"
       style="font-size:24px;font-family:Sans;-inkscape-font-specification:'Sans, Normal';fill:#1a1a1a;stroke-width:0.75"
       x="-447.10083"
       y="558.26459"
       id="text32-0"
       transform="rotate(-90)"><tspan
         sodipodi:role="line"
         id="tspan32-2"
         style="stroke-width:0.75"
         x="-447.10083"
         y="558.26459">Extras</tspan></text>
    <text
       xml:space="preserve"
       style="font-size:24px;font-family:Sans;-inkscape-font-specification:'Sans, Normal';fill:#1a1a1a;stroke-width:0.75"
       x="676.63409"
       y="883.35193"
       id="text33"><tspan
         sodipodi:role="line"
         id="tspan33"
         style="stroke-width:0.75"
         x="676.63409"
         y="883.35193">Post Diploma</tspan></text>
    <text
       xml:space="preserve"
       style="font-size:24px;font-family:Sans;-inkscape-font-specification:'Sans, Normal';fill:#1a1a1a;stroke-width:0.75"
       x="913.15637"
       y="884.62836"
       id="text34"><tspan
         sodipodi:role="line"
         style="stroke-width:0.75"
         x="913.15637"
         y="884.62836"
         id="tspan35">Paramedic</tspan></text>
    <text
       xml:space="preserve"
       style="font-size:24px;font-family:Sans;-inkscape-font-specification:'Sans, Normal';fill:#1a1a1a;stroke-width:0.75"
       x="292.09528"
       y="520.27948"
       id="paramedic-ca"><tspan
         sodipodi:role="line"
         style="stroke-width:0.75"
         x="292.09528"
         y="520.27948"
         id="tspan35-2">Paramedic</tspan></text>
    <text
       xml:space="preserve"
       style="font-size:24px;font-family:Sans;-inkscape-font-specification:'Sans, Normal';fill:#1a1a1a;stroke-width:0.75"
       x="1177.1741"
       y="202.34969"
       id="text34-2"><tspan
         sodipodi:role="line"
         style="stroke-width:0.75"
         x="1177.1741"
         y="202.34969"
         id="tspan35-3">Paramedic</tspan></text>
    <text
       xml:space="preserve"
       style="font-size:24px;font-family:Sans;-inkscape-font-specification:'Sans, Normal';fill:#1a1a1a;stroke-width:0.75"
       x="859.63025"
       y="56.480316"
       id="text36"><tspan
         sodipodi:role="line"
         id="tspan36"
         style="stroke-width:0.75"
         x="859.63025"
         y="56.480316">Certificate</tspan></text>
    <text
       xml:space="preserve"
       style="font-size:24px;font-family:Sans;-inkscape-font-specification:'Sans, Normal';fill:#1a1a1a;stroke-width:0.75"
       x="481.38394"
       y="-1251.5809"
       id="text37"
       transform="rotate(90)"><tspan
         sodipodi:role="line"
         id="tspan37"
         style="stroke-width:0.75"
         x="481.38394"
         y="-1251.5809">Diploma</tspan></text>
    <text
       xml:space="preserve"
       style="font-size:24px;font-family:Sans;-inkscape-font-specification:'Sans, Normal';fill:#1a1a1a;stroke-width:0.75"
       x="-447.57156"
       y="438.33209"
       id="text38"
       transform="rotate(-90)"><tspan
         sodipodi:role="line"
         id="tspan38"
         style="stroke-width:0.75"
         x="-447.57156"
         y="438.33209">Career Advancement</tspan></text>
    <text
       xml:space="preserve"
       style="font-style:normal;font-variant:normal;font-weight:normal;font-stretch:normal;font-size:24px;font-family:Sans;-inkscape-font-specification:'Sans, Normal';font-variant-ligatures:normal;font-variant-caps:normal;font-variant-numeric:normal;font-variant-east-asian:normal;fill:#1a1a1a;stroke-width:0.75;image-rendering:auto"
       x="-64.263069"
       y="689.38629"
       id="text40"
       transform="rotate(-90)"><tspan
         sodipodi:role="line"
         id="tspan47"
         x="-64.263069"
         y="689.38629">Lab Assistant</tspan></text>
    <text
       xml:space="preserve"
       style="font-style:normal;font-variant:normal;font-weight:normal;font-stretch:normal;font-size:24px;font-family:Sans;-inkscape-font-specification:'Sans, Normal';font-variant-ligatures:normal;font-variant-caps:normal;font-variant-numeric:normal;font-variant-east-asian:normal;fill:#1a1a1a;stroke-width:0.75"
       x="-42.464828"
       y="755.70447"
       id="hca-text"
       transform="rotate(-90)"><tspan
         sodipodi:role="line"
         id="tspan48"
         x="-42.464828"
         y="755.70447">HCA</tspan></text>
    <text
       xml:space="preserve"
       style="font-style:normal;font-variant:normal;font-weight:normal;font-stretch:normal;font-size:24px;font-family:Sans;-inkscape-font-specification:'Sans, Normal';font-variant-ligatures:normal;font-variant-caps:normal;font-variant-numeric:normal;font-variant-east-asian:normal;fill:#1a1a1a;stroke-width:0.75"
       x="-30.782326"
       y="815.19611"
       id="text42"
       transform="rotate(-90)"><tspan
         sodipodi:role="line"
         id="tspan49"
         x="-30.782326"
         y="815.19611">PCA</tspan></text>
    <text
       xml:space="preserve"
       style="font-size:24px;font-family:Sans;-inkscape-font-specification:'Sans, Normal';fill:#1a1a1a;stroke-width:0.75"
       x="1274.1957"
       y="422.47269"
       id="text44"><tspan
         sodipodi:role="line"
         id="tspan44"
         style="stroke-width:0.75"
         x="1274.1957"
         y="422.47269">Sonographer</tspan></text>
    <text
       xml:space="preserve"
       style="font-size:24px;font-family:Sans;-inkscape-font-specification:'Sans, Normal';fill:#1a1a1a;stroke-width:0.75"
       x="1262.8997"
       y="364.86279"
       id="text45"><tspan
         sodipodi:role="line"
         style="stroke-width:0.75"
         x="1262.8997"
         y="364.86279"
         id="tspan46">Lab Technologist</tspan></text>
    <text
       xml:space="preserve"
       style="font-style:normal;font-variant:normal;font-weight:normal;font-stretch:normal;font-size:24px;font-family:Sans;-inkscape-font-specification:'Sans, Normal';font-variant-ligatures:normal;font-variant-caps:normal;font-variant-numeric:normal;font-variant-east-asian:normal;fill:#1a1a1a;stroke-width:0.75"
       x="1242.5667"
       y="310.64166"
       id="text50"><tspan
         sodipodi:role="line"
         id="tspan50"
         style="stroke-width:0.75"
         x="1242.5667"
         y="310.64166">Radiological Technologist</tspan></text>
    <text
       xml:space="preserve"
       style="font-style:normal;font-variant:normal;font-weight:normal;font-stretch:normal;font-size:24px;font-family:Sans;-inkscape-font-specification:'Sans, Normal';font-variant-ligatures:normal;font-variant-caps:normal;font-variant-numeric:normal;font-variant-east-asian:normal;fill:#1a1a1a;stroke-width:0.75"
       x="1214.3265"
       y="254.16138"
       id="text51"><tspan
         sodipodi:role="line"
         id="tspan51"
         style="stroke-width:0.75"
         x="1214.3265"
         y="254.16138">LPN</tspan></text>
    <text
       xml:space="preserve"
       style="font-style:normal;font-variant:normal;font-weight:normal;font-stretch:normal;font-size:24px;font-family:Sans;-inkscape-font-specification:'Sans, Normal';font-variant-ligatures:normal;font-variant-caps:normal;font-variant-numeric:normal;font-variant-east-asian:normal;fill:#1a1a1a;stroke-width:0.75"
       x="1128.4766"
       y="153.62643"
       id="text52"><tspan
         sodipodi:role="line"
         id="tspan52"
         style="stroke-width:0.75"
         x="1128.4766"
         y="153.62643">Rehabilitation Assistant</tspan></text>
    <text
       xml:space="preserve"
       style="font-style:normal;font-variant:normal;font-weight:normal;font-stretch:normal;font-size:24px;font-family:Sans;-inkscape-font-specification:'Sans, Normal';font-variant-ligatures:normal;font-variant-caps:normal;font-variant-numeric:normal;font-variant-east-asian:normal;fill:#1a1a1a;stroke-width:0.75"
       x="1076.5146"
       y="111.831"
       id="text53"><tspan
         sodipodi:role="line"
         id="tspan53"
         style="stroke-width:0.75"
         x="1076.5146"
         y="111.831">Respitory Therapist</tspan></text>
    <text
       xml:space="preserve"
       style="font-style:normal;font-variant:normal;font-weight:normal;font-stretch:normal;font-size:24px;font-family:Sans;-inkscape-font-specification:'Sans, Normal';font-variant-ligatures:normal;font-variant-caps:normal;font-variant-numeric:normal;font-variant-east-asian:normal;fill:#1a1a1a;stroke-width:0.75"
       x="206.71791"
       y="574.96948"
       id="text54"><tspan
         sodipodi:role="line"
         id="tspan54"
         style="stroke-width:0.75"
         x="206.71791"
         y="574.96948">CLXR Technologist</tspan></text>
  </g>
  <g
     inkscape:groupmode="layer"
     id="layer1"
     inkscape:label="clickable nodes"
     transform="translate(-208.06557,95.428337)">
    <ellipse
       style="fill:#ffdd55;stroke-width:0.75"
       id="lab-assistant"
       cx="683.41168"
       cy="80.76683"
       rx="11.296061"
       ry="11.013659" />
    <ellipse
       style="fill:#ff0000;fill-opacity:1;stroke-width:1.00636"
       id="post-diploma"
       cx="845.15894"
       cy="821.4455"
       rx="14.826079"
       ry="15.10848" />
    <ellipse
       style="fill:#0000ff;stroke-width:0.97788"
       id="diploma"
       cx="1205.2637"
       cy="463.32501"
       rx="14.684879"
       ry="14.402477" />
    <ellipse
       style="fill:#0000ff;stroke-width:0.75"
       id="sonographer"
       cx="1258.0234"
       cy="414.4584"
       rx="11.296061"
       ry="11.013659" />
    <ellipse
       style="fill:#0000ff;stroke-width:0.75"
       id="lab_tech"
       cx="1245.5724"
       cy="355.84595"
       rx="11.296061"
       ry="11.013659" />
    <ellipse
       style="fill:#0000ff;stroke-width:0.75"
       id="radiological_tech"
       cx="1226.3691"
       cy="301.48984"
       rx="11.296061"
       ry="11.013659" />
    <ellipse
       style="fill:#0000ff;stroke-width:0.75"
       id="lpn"
       cx="1199.2585"
       cy="245.35547"
       rx="11.296061"
       ry="11.013659" />
    <ellipse
       style="fill:#0000ff;stroke-width:0.75"
       id="paramedic"
       cx="1161.3339"
       cy="193.47237"
       rx="11.296061"
       ry="11.013659" />
    <ellipse
       style="fill:#ff0000;stroke-width:0.75"
       id="paramedic-pd"
       cx="894.23315"
       cy="874.74146"
       rx="11.296061"
       ry="11.013659" />
    <ellipse
       style="fill:#0000ff;stroke-width:0.75"
       id="rehab_assistant"
       cx="1111.9136"
       cy="144.75922"
       rx="11.296061"
       ry="11.013659" />
    <ellipse
       style="fill:#0000ff;stroke-width:0.75"
       id="respitory_therapist"
       cx="1061.9723"
       cy="109.39358"
       rx="11.296061"
       ry="11.013659" />
    <ellipse
       style="fill:#ffdd55;stroke-width:0.75"
       id="hca"
       cx="747.49457"
       cy="59.495548"
       rx="11.296061"
       ry="11.013659" />
    <ellipse
       style="fill:#ffdd55;stroke-width:0.75"
       id="pca"
       cx="806.9339"
       cy="49.509212"
       rx="11.296061"
       ry="11.013659" />
    <ellipse
       style="fill:#666666;stroke-width:0.75"
       id="top-english"
       cx="844.19696"
       cy="368.56351"
       rx="11.296061"
       ry="11.013659" />
    <ellipse
       style="fill:#666666;stroke-width:0.75"
       id="top-math"
       cx="844.16742"
       cy="330.23636"
       rx="11.296061"
       ry="11.013659" />
    <ellipse
       style="fill:#666666;stroke-width:0.75"
       id="right-english"
       cx="937.52863"
       cy="463.65155"
       rx="11.296061"
       ry="11.013659" />
    <ellipse
       style="fill:#666666;stroke-width:0.75"
       id="right-math"
       cx="974.94574"
       cy="463.66077"
       rx="11.296061"
       ry="11.013659" />
    <ellipse
       style="fill:#666666;stroke-width:0.75"
       id="bottom-extra"
       cx="845.18298"
       cy="753.27771"
       rx="11.296061"
       ry="11.013659" />
    <ellipse
       style="fill:#ffdd55;stroke-width:1.03472"
       id="cert"
       cx="844.72668"
       cy="102.15041"
       rx="15.673284"
       ry="15.10848" />
    <ellipse
       style="fill:#008000;stroke-width:0.75"
       id="paramedic-CA"
       cx="433.75922"
       cy="511.06927"
       rx="11.296061"
       ry="11.013659">
      <title
         id="title763">left-node-1</title>
    </ellipse>
    <path
       id="CLXRTech"
       style="fill:#008000;stroke-width:0.75"
       d="m 444.24023,554.3877 a 11.296061,11.013659 0 0 0 -11.29541,11.01269 11.296061,11.013659 0 0 0 10.81202,10.98047 c 0.31033,-0.0118 0.62132,-0.0147 0.9331,-0.0102 0.0806,-0.001 0.16109,-0.003 0.2417,-0.004 a 11.296061,11.013659 0 0 0 10.60547,-10.96582 11.296061,11.013659 0 0 0 -11.29688,-11.01269 z">
      <title
         id="title762">left-node-2</title>
    </path>
    <ellipse
       style="fill:#008000;stroke-width:0.968386;image-rendering:auto"
       id="CA"
       cx="485.95316"
       cy="462.8801"
       rx="14.261276"
       ry="14.543677">
      <title
         id="title758">left-big-node</title>
    </ellipse>
    <ellipse
       style="fill:#666666;stroke-width:0.75"
       id="right-science"
       cx="1015.5276"
       cy="463.64233"
       rx="11.296061"
       ry="11.013659" />
    <ellipse
       style="fill:#666666;stroke-width:0.75"
       id="right-casper"
       cx="1091.4674"
       cy="463.39169"
       rx="11.296061"
       ry="11.013659" />
    <ellipse
       style="fill:#666666;stroke-width:0.75"
       id="right-extra"
       cx="1138.3817"
       cy="462.96698"
       rx="11.296061"
       ry="11.013659" />
    <ellipse
       style="fill:#666666;stroke-width:0.75"
       id="left-extra"
       cx="550.04907"
       cy="462.72513"
       rx="11.296061"
       ry="11.013659" />
    <ellipse
       style="fill:#666666;stroke-width:0.75"
       id="left-casper"
       cx="589.06378"
       cy="463.13373"
       rx="11.296061"
       ry="11.013659" />
    <ellipse
       style="fill:#666666;stroke-width:0.75"
       id="left-science"
       cx="663.51715"
       cy="463.1153"
       rx="11.296061"
       ry="11.013659" />
    <ellipse
       style="fill:#666666;stroke-width:0.75"
       id="left-math"
       cx="707.18286"
       cy="462.86469"
       rx="11.296061"
       ry="11.013659" />
    <ellipse
       style="fill:#666666;stroke-width:0.75"
       id="left-english"
       cx="749.30469"
       cy="462.43994"
       rx="11.296061"
       ry="11.013659" />
    <ellipse
       style="fill:#666666;stroke-width:0.75"
       id="top-science"
       cx="844.00256"
       cy="290.78305"
       rx="11.296061"
       ry="11.013659" />
    <ellipse
       style="fill:#666666;stroke-width:0.75"
       id="top-casper"
       cx="844.74335"
       cy="215.70433"
       rx="11.296061"
       ry="11.013659" />
    <ellipse
       style="fill:#666666;stroke-width:0.75"
       id="top-extra"
       cx="845.46478"
       cy="170.04227"
       rx="11.296061"
       ry="11.013659" />
  </g>
</svg>
