<?xml version="1.0" encoding="UTF-8" standalone="no"?>
<svg
   version="1.0"
   width="1254.1115pt"
   height="878.49658pt"
   viewBox="0 0 1254.1115 878.49659"
   preserveAspectRatio="xMidYMid"
   id="svg707"
   sodipodi:docname="HSImage.svg"
   inkscape:version="1.3 (0e150ed6c4, 2023-07-21)"
   xmlns:inkscape="http://www.inkscape.org/namespaces/inkscape"
   xmlns:sodipodi="http://sodipodi.sourceforge.net/DTD/sodipodi-0.dtd"
   xmlns="http://www.w3.org/2000/svg"
   xmlns:svg="http://www.w3.org/2000/svg">
  <defs
     id="defs707">
    <rect
       x="713.15796"
       y="-63.257942"
       width="231.1927"
       height="61.751801"
       id="rect11" />
    <rect
       x="748.55231"
       y="1027.1885"
       width="100.91148"
       height="48.196526"
       id="rect9" />
    <rect
       x="1388.6624"
       y="1045.2622"
       width="156.6387"
       height="87.356209"
       id="rect8" />
    <clipPath
       clipPathUnits="userSpaceOnUse"
       id="clipPath9">
      <path
         id="path10"
         style="fill:#ff0000;fill-opacity:1;fill-rule:nonzero;stroke:none;stroke-width:7.5"
         d="M 6130.0003,2367.5242 V 372.84635 H 9679.1406 V 2207.3875 c -25.5142,15.9547 -47.6925,30.0556 -144.7117,91.6992 -35.0183,22.7401 -70.0035,45.5586 -104.9415,68.4375 z m 3402.8761,0 c 10.7805,-7.0121 21.5295,-14.076 32.3145,-21.0791 75.975,-48.2705 94.842,-60.3556 113.9497,-72.4219 v 93.501 z M 9074.1606,2083.447 c 9.3218,-0.4057 20.3415,-5.3672 31.2743,-16.6699 49.0515,-50.7088 97.6492,-101.7988 147.7882,-151.4502 59.8028,-58.8998 124.0927,-112.9481 187.6313,-167.7099 42.354,-36.5022 5.4832,-79.2904 -36.87,-42.7879 -64.527,55.6132 -129.8033,110.5415 -190.5173,170.3757 -50.1952,49.7237 -98.8905,100.8416 -147.9787,151.6407 -27.9255,28.8991 -15.153,57.6379 8.6722,56.6015 z" />
    </clipPath>
    <clipPath
       clipPathUnits="userSpaceOnUse"
       id="clipPath12">
      <path
         id="path12"
         style="fill:#ff0000;fill-opacity:1;fill-rule:nonzero;stroke:none;stroke-width:0.75"
         d="m 1147.4576,724.08398 c 2.371,2.44356 4.7542,4.87451 7.1748,7.27149 4.6609,4.59056 9.5951,8.88528 14.5532,13.1499 v -20.42139 z m -0.8643,7.19971 v 14.82715 h 15.8217 c -4.0092,-3.48285 -7.9749,-7.01459 -11.7582,-10.74317 -1.3647,-1.35178 -2.7173,-2.71503 -4.0635,-4.08398 z" />
    </clipPath>
  </defs>
  <sodipodi:namedview
     id="namedview707"
     pagecolor="#505050"
     bordercolor="#eeeeee"
     borderopacity="1"
     inkscape:showpageshadow="0"
     inkscape:pageopacity="0"
     inkscape:pagecheckerboard="0"
     inkscape:deskcolor="#505050"
     inkscape:document-units="pt"
     inkscape:zoom="0.66394826"
     inkscape:cx="896.90724"
     inkscape:cy="323.06734"
     inkscape:window-width="1920"
     inkscape:window-height="1009"
     inkscape:window-x="1912"
     inkscape:window-y="-8"
     inkscape:window-maximized="1"
     inkscape:current-layer="layer2" />
  <g
     inkscape:groupmode="layer"
     id="layer2"
     inkscape:label="image layer"
     transform="translate(-208.06557,-9.6834526)">
    <g
       transform="matrix(0.1,0,0,-0.1,229.31004,922.88816)"
       fill="#000000"
       stroke="none"
       id="g707">
      <g
         id="g752">
        <path
           d="m 5730,8837 c -14,-7 -36,-29 -49,-50 -17,-26 -33,-38 -55,-41 -17,-3 -103,-16 -191,-30 -144,-24 -160,-25 -168,-10 -14,25 -74,46 -113,38 -37,-7 -84,-53 -84,-84 0,-14 -18,-23 -81,-40 -93,-25 -195,-58 -289,-93 -64,-24 -65,-24 -95,-6 -58,31.764 -117.5,9.764 -149.5,-31.052 -32,-40.816 -36.5,-100.448 15.5,-143.948 68,-58 179,-16 179,67 0,35 1,36 83,67 107,41 302,100 330,100 12,0 28,-9 34,-20 7,-10 30,-24 51,-31 57,-17 108,9 134,67 16,37 24,44 56,49 20,4 57,10 82,15 25,6 84,14 132,20 48,6 94,13 101,16 8,3 22,-7 31,-21 22,-34 77,-57 114,-49 32,8 71,41 82,70 8,19 19,22 119,28 61,4 116,4 121,1 6,-4 10,-69 10,-161 v -154 h 25 25 l -2,183 -3,182 -147,-1 c -141,-1 -146,0 -156,21 -11,23 -68,55 -99,55 -10,0 -29,-6 -43,-13 z"
           id="path1"
           sodipodi:nodetypes="scccccscccscscscccccsccccccscccccccss"
           style="fill:#ffdd55" />
        <path
           d="m 8265,8218 c -15,-12 -34,-36 -41,-54 -12,-29 -12,-39 1,-72 26,-65 96,-90 155,-56 27,16 28,16 86,-26 80,-58 168,-124 174,-130 3,-3 22,-18 43,-33 30,-23 37,-34 37,-62 0,-76 45,-119 124,-117 l 51,1 162,-163 c 161,-160 163,-163 163,-206 0,-62 36,-107 94,-115 31,-5 50,-15 64,-33 11,-15 47,-63 81,-107 33,-44 64,-85 69,-91 5,-6 22,-30 37,-55 16,-24 32,-47 38,-50 5,-4 5,-14 -2,-27 -33,-63 5,-134 84,-156 44,-13 53,-26 166,-245 60,-116 61,-126 25,-153 -5,-3 -9,-28 -9,-54 0,-43 4,-51 38,-81 23,-20 49,-33 65,-33 25,0 29,-8 63,-97 20,-54 46,-128 58,-165 l 23,-67 -26,-24 c -34,-32 -43,-76 -24,-120 14,-34 58,-67 88,-67 16,0 31,-50 53,-170 9,-47 21,-111 27,-143 10,-55 10,-58 -13,-80 -14,-12 -30,-36 -37,-53 -18,-43 4,-97 53,-125 32,-19 35,-25 35,-67 0,-26 3,-104 7,-174 l 6,-128 h -156 -157 v -25 -25 l 178,2 177,3 -3,198 -3,197 35,34 c 31,29 36,40 36,79 0,37 -5,51 -31,76 -17,17 -39,31 -49,31 -15,0 -21,16 -35,98 -16,96 -22,127 -46,229 -12,50 -11,54 10,76 52,56 32,147 -39,175 -38,14 -41,19 -69,106 -16,50 -43,127 -60,170 -28,72 -29,81 -15,97 21,23 29,83 15,117 -14,32 -58,62 -93,62 -20,0 -30,13 -63,82 -22,45 -63,123 -92,174 -29,51 -53,98 -53,106 0,7 9,24 20,38 11,14 20,36 20,50 0,65 -81,130 -137,109 -14,-5 -29,-6 -32,-2 -3,5 -25,36 -48,68 -23,33 -65,89 -93,125 -28,36 -62,81 -76,101 l -25,36 22,37 c 19,33 20,42 10,76 -20,68 -85,97 -154,71 -23,-9 -38,3 -191,155 -149,149 -165,168 -155,186 14,27 5,85 -18,110 -10,11 -33,26 -52,34 -31,13 -38,13 -74,-5 l -39,-19 -25,21 c -14,12 -31,27 -37,32 -6,6 -66,51 -133,100 l -123,89 v 42 c 0,35 -5,47 -35,73 -43,38 -90,41 -130,9 z"
           id="path78"
           style="fill:#0000ff" />
        <path
           d="m 6067,7915 c -42,-53 -77,-102 -77,-109 0,-8 8,-17 18,-21 12,-5 29,7 62,45 25,28 48,50 53,50 4,0 7,-26 7,-57 v -603 l -6,-511 -4,-529 v -355 -274 -129 c 0,-141 0,-142 -60,-142 -47,0 -180,-46 -250,-87 -36,-21 -100,-72 -142,-114 -97,-97 -160,-219 -186,-358 -19.6961,-85.0086 -15.2913,-159.7335 1,-243 40,-203 154,-366 324,-466 304.5924,-187.06 885.9358,-104.3983 1019,451 8,31 13,61 13,65 -7,43 -11,42 221,42 h 489 631 600 280 319 76 l -59,-53 c -56,-50 -67,-77 -31,-77 22,0 195,149 189,163 -10,21 -177,147 -196,147 -32,0 -20,-24 39,-77 l 58,-52 -77,-1 h -313 -286 -600 -631 -489 -219 v 33 c -1,47 -32,167 -61,232 -23,52 -78,134 -122,182 -109,119 -256,192 -439,218 l -38,6 v 134 409 349 532 l 1,1180 20,-25 c 76,-92 101,-107 107,-64 3,22 -136,204 -156,204 -4,0 -42,-43 -85,-95 z"
           id="path79"
           style="fill:#1a1a1a"
           sodipodi:nodetypes="csccsscccccsscscccccssccssccscscccsccccccccccsssccccsc" />
      </g>
    </g>
  </g>
  <g
     inkscape:groupmode="layer"
     id="layer3"
     inkscape:label="text"
     style="fill:#000000"
     transform="translate(-208.06557,-9.6834526)">
    <text
       xml:space="preserve"
       style="font-size:24px;font-family:Sans;-inkscape-font-specification:'Sans, Normal';fill:#1a1a1a;stroke-width:0.75"
       x="858.65851"
       y="377.80978"
       id="text27"><tspan
         sodipodi:role="line"
         id="tspan27"
         style="fill:#1a1a1a;stroke-width:0.75"
         x="858.65851"
         y="377.80978">English</tspan></text>
    <text
       xml:space="preserve"
       style="font-size:24px;font-family:Sans;-inkscape-font-specification:'Sans, Normal';fill:#1a1a1a;stroke-width:0.75"
       x="478.8103"
       y="-929.76831"
       id="text27-4"
       transform="rotate(90)"><tspan
         sodipodi:role="line"
         id="tspan27-3"
         style="fill:#1a1a1a;stroke-width:0.75"
         x="478.8103"
         y="-929.76831">English</tspan></text>
    <text
       xml:space="preserve"
       style="font-size:24px;font-family:Sans;-inkscape-font-specification:'Sans, Normal';fill:#1a1a1a;stroke-width:0.75"
       x="858.65857"
       y="340.2684"
       id="text28"><tspan
         sodipodi:role="line"
         style="stroke-width:0.75"
         x="858.65857"
         y="340.2684"
         id="tspan29">Science</tspan></text>
    <text
       xml:space="preserve"
       style="font-size:24px;font-family:Sans;-inkscape-font-specification:'Sans, Normal';fill:#1a1a1a;stroke-width:0.75"
       x="478.91415"
       y="-967.00592"
       id="text28-0"
       transform="rotate(90)"><tspan
         sodipodi:role="line"
         style="stroke-width:0.75"
         x="478.91415"
         y="-967.00592"
         id="tspan29-1">Science</tspan></text>
    <text
       xml:space="preserve"
       style="font-size:24px;font-family:Sans;-inkscape-font-specification:'Sans, Normal';fill:#1a1a1a;stroke-width:0.75"
       x="858.65851"
       y="300.33081"
       id="text30"><tspan
         sodipodi:role="line"
         id="tspan30"
         style="stroke-width:0.75"
         x="858.65851"
         y="300.33081">Math</tspan></text>
    <text
       xml:space="preserve"
       style="font-size:24px;font-family:Sans;-inkscape-font-specification:'Sans, Normal';fill:#1a1a1a;stroke-width:0.75"
       x="479.85114"
       y="-1007.0847"
       id="text30-8"
       transform="rotate(90)"><tspan
         sodipodi:role="line"
         id="tspan30-1"
         style="stroke-width:0.75"
         x="479.85114"
         y="-1007.0847">Math</tspan></text>
    <text
       xml:space="preserve"
       style="font-size:24px;font-family:Sans;-inkscape-font-specification:'Sans, Normal';fill:#1a1a1a;stroke-width:0.75"
       x="477.76291"
       y="-1084.1322"
       id="text31-5"
       transform="rotate(90)"><tspan
         sodipodi:role="line"
         id="tspan31-2"
         style="stroke-width:0.75"
         x="477.76291"
         y="-1084.1322">Casper</tspan></text>
    <text
       xml:space="preserve"
       style="font-size:24px;font-family:Sans;-inkscape-font-specification:'Sans, Normal';fill:#1a1a1a;stroke-width:0.75"
       x="859.45728"
       y="178.92049"
       id="text32"><tspan
         sodipodi:role="line"
         id="tspan32"
         style="stroke-width:0.75"
         x="859.45728"
         y="178.92049">Extras</tspan></text>
    <text
       xml:space="preserve"
       style="font-size:24px;font-family:Sans;-inkscape-font-specification:'Sans, Normal';fill:#1a1a1a;stroke-width:0.75"
       x="478.45279"
       y="-1129.4655"
       id="text32-6"
       transform="rotate(90)"><tspan
         sodipodi:role="line"
         id="tspan32-9"
         style="stroke-width:0.75"
         x="478.45279"
         y="-1129.4655">Extras</tspan></text>
    <text
       xml:space="preserve"
       style="font-size:24px;font-family:Sans;-inkscape-font-specification:'Sans, Normal';fill:#1a1a1a;stroke-width:0.75"
       x="1177.1741"
       y="202.34969"
       id="text34-2"><tspan
         sodipodi:role="line"
         style="stroke-width:0.75"
         x="1177.1741"
         y="202.34969"
         id="tspan35-3">Paramedic</tspan></text>
    <text
       xml:space="preserve"
       style="font-size:24px;font-family:Sans;-inkscape-font-specification:'Sans, Normal';fill:#1a1a1a;stroke-width:0.75"
       x="859.63025"
       y="56.480316"
       id="text36"><tspan
         sodipodi:role="line"
         id="tspan36"
         style="stroke-width:0.75"
         x="859.63025"
         y="56.480316">Certificate</tspan></text>
    <text
       xml:space="preserve"
       style="font-size:24px;font-family:Sans;-inkscape-font-specification:'Sans, Normal';fill:#1a1a1a;stroke-width:0.75"
       x="481.38394"
       y="-1251.5809"
       id="text37"
       transform="rotate(90)"><tspan
         sodipodi:role="line"
         id="tspan37"
         style="stroke-width:0.75"
         x="481.38394"
         y="-1251.5809">Diploma</tspan></text>
    <text
       xml:space="preserve"
       style="font-style:normal;font-variant:normal;font-weight:normal;font-stretch:normal;font-size:24px;font-family:Sans;-inkscape-font-specification:'Sans, Normal';font-variant-ligatures:normal;font-variant-caps:normal;font-variant-numeric:normal;font-variant-east-asian:normal;fill:#1a1a1a;stroke-width:0.75;image-rendering:auto"
       x="508.37543"
       y="70.458748"
       id="text40"><tspan
         sodipodi:role="line"
         id="tspan47"
         x="508.37543"
         y="70.458748">Lab Assistant</tspan></text>
    <text
       xml:space="preserve"
       style="font-style:normal;font-variant:normal;font-weight:normal;font-stretch:normal;font-size:24px;font-family:Sans;-inkscape-font-specification:'Sans, Normal';font-variant-ligatures:normal;font-variant-caps:normal;font-variant-numeric:normal;font-variant-east-asian:normal;fill:#1a1a1a;stroke-width:0.75"
       x="685.21564"
       y="42.142845"
       id="hca-text"><tspan
         sodipodi:role="line"
         id="tspan48"
         x="685.21564"
         y="42.142845">HCA</tspan></text>
    <text
       xml:space="preserve"
       style="font-style:normal;font-variant:normal;font-weight:normal;font-stretch:normal;font-size:24px;font-family:Sans;-inkscape-font-specification:'Sans, Normal';font-variant-ligatures:normal;font-variant-caps:normal;font-variant-numeric:normal;font-variant-east-asian:normal;fill:#1a1a1a;stroke-width:0.75"
       x="767.25604"
       y="27.449078"
       id="text42"><tspan
         sodipodi:role="line"
         id="tspan49"
         x="767.25604"
         y="27.449078">PCA</tspan></text>
    <text
       xml:space="preserve"
       style="font-size:24px;font-family:Sans;-inkscape-font-specification:'Sans, Normal';fill:#1a1a1a;stroke-width:0.75"
       x="1274.1957"
       y="422.47269"
       id="text44"><tspan
         sodipodi:role="line"
         id="tspan44"
         style="stroke-width:0.75"
         x="1274.1957"
         y="422.47269">Sonographer</tspan></text>
    <text
       xml:space="preserve"
       style="font-size:24px;font-family:Sans;-inkscape-font-specification:'Sans, Normal';fill:#1a1a1a;stroke-width:0.75"
       x="1262.8997"
       y="364.86279"
       id="text45"><tspan
         sodipodi:role="line"
         style="stroke-width:0.75"
         x="1262.8997"
         y="364.86279"
         id="tspan46">Lab Technologist</tspan></text>
    <text
       xml:space="preserve"
       style="font-style:normal;font-variant:normal;font-weight:normal;font-stretch:normal;font-size:24px;font-family:Sans;-inkscape-font-specification:'Sans, Normal';font-variant-ligatures:normal;font-variant-caps:normal;font-variant-numeric:normal;font-variant-east-asian:normal;fill:#1a1a1a;stroke-width:0.75"
       x="1081.0331"
       y="116.34943"
       id="text50"><tspan
         sodipodi:role="line"
         id="tspan50"
         style="stroke-width:0.75"
         x="1081.0331"
         y="116.34943">Radiological Technologist</tspan></text>
    <text
       xml:space="preserve"
       style="font-style:normal;font-variant:normal;font-weight:normal;font-stretch:normal;font-size:24px;font-family:Sans;-inkscape-font-specification:'Sans, Normal';font-variant-ligatures:normal;font-variant-caps:normal;font-variant-numeric:normal;font-variant-east-asian:normal;fill:#1a1a1a;stroke-width:0.75"
       x="1243.6963"
       y="309.51205"
       id="text51"><tspan
         sodipodi:role="line"
         id="tspan51"
         style="stroke-width:0.75"
         x="1243.6963"
         y="309.51205">LPN</tspan></text>
    <text
       xml:space="preserve"
       style="font-style:normal;font-variant:normal;font-weight:normal;font-stretch:normal;font-size:24px;font-family:Sans;-inkscape-font-specification:'Sans, Normal';font-variant-ligatures:normal;font-variant-caps:normal;font-variant-numeric:normal;font-variant-east-asian:normal;fill:#1a1a1a;stroke-width:0.75"
       x="1128.4766"
       y="153.62643"
       id="text52"><tspan
         sodipodi:role="line"
         id="tspan52"
         style="stroke-width:0.75"
         x="1128.4766"
         y="153.62643">Rehabilitation Assistant</tspan></text>
    <text
       xml:space="preserve"
       style="font-style:normal;font-variant:normal;font-weight:normal;font-stretch:normal;font-size:24px;font-family:Sans;-inkscape-font-specification:'Sans, Normal';font-variant-ligatures:normal;font-variant-caps:normal;font-variant-numeric:normal;font-variant-east-asian:normal;fill:#1a1a1a;stroke-width:0.75"
       x="1216.5858"
       y="254.16136"
       id="text53"><tspan
         sodipodi:role="line"
         id="tspan53"
         style="stroke-width:0.75"
         x="1216.5858"
         y="254.16136">Respitory Therapist</tspan></text>
  </g>
  <g
     inkscape:groupmode="layer"
     id="layer1"
     inkscape:label="clickable nodes"
     transform="translate(-208.06557,-9.6834526)">
    <ellipse
       style="fill:#ffdd55;stroke-width:0.75"
       id="lab-assistant"
       cx="683.41168"
       cy="80.76683"
       rx="11.296061"
       ry="11.013659" />
    <ellipse
       style="fill:#0000ff;stroke-width:0.97788"
       id="diploma"
       cx="1205.2637"
       cy="463.32501"
       rx="14.684879"
       ry="14.402477" />
    <ellipse
       style="fill:#0000ff;stroke-width:0.75"
       id="sonographer"
       cx="1258.0234"
       cy="414.4584"
       rx="11.296061"
       ry="11.013659" />
    <ellipse
       style="fill:#0000ff;stroke-width:0.75"
       id="lab_tech"
       cx="1245.5724"
       cy="355.84595"
       rx="11.296061"
       ry="11.013659" />
    <ellipse
       style="fill:#0000ff;stroke-width:0.75"
       id="radiological_tech"
       cx="1226.3691"
       cy="301.48984"
       rx="11.296061"
       ry="11.013659" />
    <ellipse
       style="fill:#0000ff;stroke-width:0.75"
       id="lpn"
       cx="1199.2585"
       cy="245.35547"
       rx="11.296061"
       ry="11.013659" />
    <ellipse
       style="fill:#0000ff;stroke-width:0.75"
       id="paramedic"
       cx="1161.3339"
       cy="193.47237"
       rx="11.296061"
       ry="11.013659" />
    <ellipse
       style="fill:#0000ff;stroke-width:0.75"
       id="rehab_assistant"
       cx="1111.9136"
       cy="144.75922"
       rx="11.296061"
       ry="11.013659" />
    <ellipse
       style="fill:#0000ff;stroke-width:0.75"
       id="respitory_therapist"
       cx="1061.9723"
       cy="109.39358"
       rx="11.296061"
       ry="11.013659" />
    <ellipse
       style="fill:#ffdd55;stroke-width:0.75"
       id="hca"
       cx="747.49457"
       cy="59.495548"
       rx="11.296061"
       ry="11.013659" />
    <ellipse
       style="fill:#ffdd55;stroke-width:0.75"
       id="pca"
       cx="806.9339"
       cy="49.509212"
       rx="11.296061"
       ry="11.013659" />
    <ellipse
       style="fill:#666666;stroke-width:0.75"
       id="top-english"
       cx="844.19696"
       cy="368.56351"
       rx="11.296061"
       ry="11.013659" />
    <ellipse
       style="fill:#666666;stroke-width:0.75"
       id="top-math"
       cx="844.16742"
       cy="330.23636"
       rx="11.296061"
       ry="11.013659" />
    <ellipse
       style="fill:#666666;stroke-width:0.75"
       id="right-english"
       cx="937.52863"
       cy="463.65155"
       rx="11.296061"
       ry="11.013659" />
    <ellipse
       style="fill:#666666;stroke-width:0.75"
       id="right-math"
       cx="974.94574"
       cy="463.66077"
       rx="11.296061"
       ry="11.013659" />
    <ellipse
       style="fill:#ffdd55;stroke-width:1.03472"
       id="cert"
       cx="844.72668"
       cy="102.15041"
       rx="15.673284"
       ry="15.10848" />
    <ellipse
       style="fill:#666666;stroke-width:0.75"
       id="right-science"
       cx="1015.5276"
       cy="463.64233"
       rx="11.296061"
       ry="11.013659" />
    <ellipse
       style="fill:#666666;stroke-width:0.75"
       id="right-casper"
       cx="1091.4674"
       cy="463.39169"
       rx="11.296061"
       ry="11.013659" />
    <ellipse
       style="fill:#666666;stroke-width:0.75"
       id="right-extra"
       cx="1138.3817"
       cy="462.96698"
       rx="11.296061"
       ry="11.013659" />
    <ellipse
       style="fill:#666666;stroke-width:0.75"
       id="top-science"
       cx="844.00256"
       cy="290.78305"
       rx="11.296061"
       ry="11.013659" />
    <ellipse
       style="fill:#666666;stroke-width:0.75"
       id="top-extra"
       cx="845.46478"
       cy="170.04227"
       rx="11.296061"
       ry="11.013659" />
  </g>
</svg>
